<svg xmlns="http://www.w3.org/2000/svg" width="132.442" height="132.445" viewBox="0 0 132.442 132.445">
  <g id="instagram_2_" data-name="instagram (2)" transform="translate(0 -0.001)">
    <path id="Caminho_30" data-name="Caminho 30" d="M39.829,5.838A33.983,33.983,0,1,0,73.811,39.821,33.979,33.979,0,0,0,39.829,5.838Zm0,56.04A22.057,22.057,0,1,1,61.886,39.821,22.05,22.05,0,0,1,39.829,61.878Z" transform="translate(26.416 26.376)" fill="#fff"/>
    <path id="Caminho_31" data-name="Caminho 31" d="M93.527.417c-12.185-.568-42.365-.541-54.561,0C28.25.919,18.8,3.507,11.176,11.128-1.561,23.864.067,41.027.067,66.2c0,25.76-1.435,42.525,11.109,55.068,12.786,12.781,30.2,11.109,55.068,11.109,25.517,0,34.325.017,43.347-3.477,12.267-4.762,21.527-15.728,22.432-35.423.574-12.19.541-42.365,0-54.561-1.093-23.249-13.57-37.349-38.5-38.5Zm19.287,112.422c-8.349,8.349-19.933,7.6-46.73,7.6-27.592,0-38.657.408-46.73-7.687-9.3-9.254-7.615-24.116-7.615-46.647,0-30.489-3.129-52.447,27.471-54.014,7.03-.248,9.1-.331,26.8-.331l.248.166c29.408,0,52.48-3.079,53.865,27.515.315,6.981.386,9.078.386,26.748-.006,27.272.513,38.4-7.693,46.647Z" transform="translate(0 0)" fill="#fff"/>
    <circle id="Elipse_10" data-name="Elipse 10" cx="7.941" cy="7.941" r="7.941" transform="translate(93.632 22.932)" fill="#fff"/>
  </g>
</svg>
