<svg xmlns="http://www.w3.org/2000/svg" width="98.628" height="80.135" viewBox="0 0 98.628 80.135">
  <path id="twitter" d="M88.494,22.235a40.362,40.362,0,0,0,10.134-10.5v0a42.228,42.228,0,0,1-11.65,3.193,20.112,20.112,0,0,0,8.9-11.174A40.457,40.457,0,0,1,83.053,8.649,20.218,20.218,0,0,0,48.077,22.473a20.82,20.82,0,0,0,.468,4.611A57.246,57.246,0,0,1,6.867,5.932a20.219,20.219,0,0,0,6.214,27.024,19.987,19.987,0,0,1-9.135-2.49v.222a20.315,20.315,0,0,0,16.2,19.869,20.106,20.106,0,0,1-5.3.666,17.847,17.847,0,0,1-3.826-.345A20.419,20.419,0,0,0,29.909,64.965,40.644,40.644,0,0,1,4.837,73.587,38.243,38.243,0,0,1,0,73.312a56.941,56.941,0,0,0,31.019,9.074c35.683,0,58.939-29.769,57.476-60.151Z" transform="translate(0 -2.25)" fill="#fff"/>
</svg>
